<?xml version="1.0" encoding="utf-8"?>
<!-- Generator: Adobe Illustrator 19.0.0, SVG Export Plug-In . SVG Version: 6.00 Build 0)  -->
<svg version="1.1" id="Livello_1" xmlns="http://www.w3.org/2000/svg" xmlns:xlink="http://www.w3.org/1999/xlink" x="0px" y="0px"
	 viewBox="-536 160.5 460.1 460.2" style="enable-background:new -536 160.5 460.1 460.2;" xml:space="preserve">
<style type="text/css">
	.st0{fill:#3399FF;}
	.st1{fill:#63BC5C;}
	.st2{fill:#5DC7F0;}
	.st3{fill:#C4C2C0;}
	.st4{fill:#F9970B;}
	.st5{fill:#FFFFFF;}
	.st6{fill:#5EC6EF;}
	.st7{fill:#C5C1C0;}
</style>
<g id="XMLID_1_">
	<path id="XMLID_126_" class="st0" d="M-75.9,390.8c-0.6,130.6-107.2,231.1-233,229.9C-434.3,619.5-536.5,516-536,389
		c0.5-125.9,103.7-230.4,233.6-228.5C-177.8,162.4-76.2,263.4-75.9,390.8z M-107.8,296.7c-0.4-1.3-0.6-2.6-1.2-3.8
		c-8.6-16.6-18.8-32.1-31.5-45.8c-17.4-18.9-36.6-35.8-59.3-48.2c-8.1-4.4-16.7-7.9-25.1-11.8c-8.5-3-16.8-6.7-25.5-8.7
		c-23.2-5.5-46.6-9.1-70.6-6.3c-11.2,1.3-22.5,2.1-33.5,4.5c-23.2,5.1-45,13.9-65.3,26.4c-22.3,13.7-41.7,30.7-58,51.2
		c-12.7,15.8-22.8,33.1-30.6,51.8c-9.7,23-15.5,47-16.4,72c-0.4,11.8,0.2,23.6,0.9,35.4c1.1,19.2,6,37.7,13,55.6
		c9.3,23.9,22.2,45.6,39.1,65c17.6,20.2,38,36.7,61.5,49.4c25.3,13.6,52.2,22.1,80.9,25c18.9,1.9,37.7,1.7,56.5-1.2
		c16.6-2.6,32.9-6.6,48.4-13.2c1.1-0.4,2.2-0.6,3.3-1.1c33.4-15.2,62.1-36.5,85.5-64.8c11.3-13.6,21.3-28.1,28.4-44.4
		c14.7-29.4,22-60.6,21.4-93.5c0.8-26.6-4.5-52.1-14.1-76.8C-102,307.5-105.1,302.2-107.8,296.7z"/>
	<path id="XMLID_120_" class="st1" d="M-223.9,483.5c0-31.2,0-62.3,0-93.5c46.1,0,92.1,0,138.2,0c0.6,32.9-6.7,64.1-21.4,93.5
		C-146.1,483.6-185,483.5-223.9,483.5z M-205.6,436.4c1.2,5,1.7,10.2,3.6,14.9c4,10,12.2,12.7,22.4,12c7.6-0.5,15.3-5.6,17.9-13.1
		c0.5-1.4-0.4-3.3-0.6-5c-1.4,1.1-3.4,1.8-4.1,3.2c-3.3,6.7-9.5,11-16,10.6c-7.7-0.5-13.9-4.8-15.4-12.6c-1.2-6.4-1.2-13.2-0.3-19.6
		c1.1-7.3,6.8-12,13-12.7c10.4-1.1,14.3,0.9,18.8,9.2c0.7,1.2,2.7,1.7,4.1,2.5c0.2-1.6,1-3.3,0.5-4.6c-4.9-14.3-22.5-14.6-32.1-9.2
		C-203.2,417.3-204.7,426.5-205.6,436.4z"/>
	<path id="XMLID_117_" class="st2" d="M-85.8,390.1c-46.1,0-92.1,0-138.2,0c-0.2-0.6-0.5-1.2-0.7-1.8c0.2-2,0.7-3.9,0.7-5.9
		c0-26.3,0.1-52.7-0.1-79c0-4.9,1.1-6.6,6.3-6.5c34,0.2,68,0.1,102,0.1c2.7,0,5.3-0.2,8-0.3c2.7,5.5,5.7,10.8,7.9,16.5
		C-90.3,337.9-84.9,363.4-85.8,390.1z M-168.8,340.6c3.9-2.8,6-7.6,4.1-13.9c-1.9-6.5-7.1-8.7-13-9.1c-6.3-0.5-12.7-0.4-19-0.1
		c-1.1,0-3.1,2.1-3.1,3.2c-0.2,15-0.1,30-0.2,45c0,2.6,1.1,3.5,3.6,3.5c6.8-0.1,13.7,0.2,20.5-0.1c9.7-0.4,15.6-7.2,13.7-16.7
		C-162.9,348.2-166.4,344.7-168.8,340.6z"/>
	<path id="XMLID_114_" class="st3" d="M-107.8,296.7c-2.7,0.1-5.3,0.3-8,0.3c-34,0-68,0.1-102-0.1c-5.2,0-6.4,1.6-6.3,6.5
		c0.2,26.3,0.1,52.7,0.1,79c0,2-0.4,3.9-0.7,5.9c0-25.6-0.1-51.2-0.1-76.9c0-41.4,0-82.9,0-124.3c8.4,3.9,17,7.4,25.1,11.8
		c22.7,12.4,41.9,29.3,59.3,48.2c12.6,13.7,22.9,29.2,31.5,45.8C-108.3,294.1-108.1,295.5-107.8,296.7z M-163.1,281.4
		c0.3-0.5,0.7-1,1-1.5c0-0.5,0-1-0.1-1.4c-5.9-15.4-11.7-30.8-17.8-46.1c-0.5-1.3-2.5-3.1-3.7-3c-1.5,0.1-3.6,1.6-4.2,3
		c-5,12-9.7,24.1-14.5,36.1c-1.5,3.8-2.9,7.7-4.3,11.5c0.4,0.5,0.9,0.9,1.3,1.4c1.5-1.1,3.6-1.9,4.4-3.3c1.6-2.9,2.3-6.2,3.7-9.3
		c0.6-1.4,2-3.4,3.1-3.4c7-0.2,14.3-1.2,20.8,0.6c2.8,0.7,3.9,7.5,5.7,11.5c0.1,0.3,0.1,0.8,0.3,0.9
		C-166.1,279.5-164.6,280.4-163.1,281.4z"/>
	<path id="XMLID_111_" class="st4" d="M-223.9,483.5c38.9,0,77.8,0.1,116.7,0.1c-7.1,16.3-17.1,30.8-28.4,44.4
		c-23.4,28.3-52.2,49.6-85.5,64.8c-1,0.5-2.2,0.7-3.3,1.1c0-35.6,0.1-71.3,0.1-106.9C-224.2,485.8-224,484.7-223.9,483.5z
		 M-202.7,524.4c0,7.3,0.1,14.6,0,22c0,2.6,0.7,4,3.7,3.9c6.7-0.2,13.3,0.3,20-0.2c8.2-0.6,14-4.8,16.8-12.8c3-8.3,3-16.6,0.2-24.9
		c-2.9-8.4-9-13-18-13.3c-6.2-0.2-12.3,0.1-18.5-0.1c-3.4-0.1-4.3,1.3-4.2,4.4C-202.6,510.4-202.7,517.4-202.7,524.4z"/>
	<path id="XMLID_110_" class="st0" d="M-358.2,514c-28.2,0-56.3,0.3-84.5-0.2c-8-0.1-16.4-1.6-23.8-4.4c-12.2-4.5-14.1-13.8-6-24.1
		c10.1-12.8,23-21,39-24.2c5.4-1.1,10.8-2.1,16.2-3.2c12.8-2.5,19.4-10,20.4-23.3c0.4-5.6-0.5-10.7-3.3-15.8
		c-3-5.5-4.4-11.8-6.6-17.7c-2.9-7.7-5.3-15.7-8.8-23.1c-4.1-8.8-8.4-17.4-7.4-27.6c0.1-1.5,0-3.1,0.5-4.4c3.8-9.4,1.8-19,1-28.6
		c-1-12.4-2.3-25.1,5.6-36.2c6.3-8.9,15.5-14,25-18.5c21.9-10.3,43.9-12.2,66.4-1.1c15.7,7.8,22.8,20.9,23.3,37.3
		c0.4,12-2.3,24-3.3,36.1c-0.2,2-0.1,4.7,1.1,5.9c4.2,4.1,4.5,9,2.9,13.9c-3.7,11.2-8,22.2-11.9,33.3c-2.5,7.1-4.5,14.2-6.8,21.3
		c-1.1,3.3-2,6.7-3.6,9.6c-9.8,17.8-1.9,35.5,18.7,40.8c9.7,2.5,19.5,4.1,29.3,6.2c14.5,3.2,24.6,12,31.1,25.1
		c6.3,12.7,1.2,21.2-13,21.9c-10.1,0.5-20.3,0.8-30.4,0.8C-310.8,514.1-334.5,514-358.2,514L-358.2,514z"/>
	<path id="XMLID_109_" class="st5" d="M-205.6,436.4c0.9-9.9,2.4-19.1,11.7-24.4c9.6-5.4,27.2-5.1,32.1,9.2c0.5,1.3-0.3,3.1-0.5,4.6
		c-1.4-0.8-3.4-1.3-4.1-2.5c-4.5-8.3-8.5-10.3-18.8-9.2c-6.2,0.7-11.9,5.4-13,12.7c-1,6.4-0.9,13.3,0.3,19.6
		c1.5,7.8,7.7,12.1,15.4,12.6c6.5,0.4,12.8-3.9,16-10.6c0.7-1.4,2.7-2.2,4.1-3.2c0.2,1.7,1.1,3.6,0.6,5
		c-2.5,7.4-10.2,12.5-17.9,13.1c-10.1,0.7-18.4-2.1-22.4-12C-203.9,446.6-204.5,441.4-205.6,436.4z"/>
	<path id="XMLID_105_" class="st5" d="M-168.8,340.6c2.4,4.1,5.9,7.7,6.7,11.7c1.9,9.5-4,16.3-13.7,16.7c-6.8,0.3-13.7,0-20.5,0.1
		c-2.5,0-3.6-0.9-3.6-3.5c0.1-15,0-30,0.2-45c0-1.1,2-3.1,3.1-3.2c6.3-0.3,12.7-0.4,19,0.1c5.9,0.5,11.1,2.6,13,9.1
		C-162.9,333-165,337.8-168.8,340.6z M-184,364.4c3.1-0.2,6.3,0,9.4-0.6c5.1-0.8,7.6-4.1,7.7-9.5c0-4.9-2.5-8.2-7.4-9.1
		c-3.6-0.6-7.2-0.9-10.9-1c-9.6-0.2-9.6-0.1-9.6,9.3C-194.8,364.4-194.8,364.4-184,364.4z M-184.9,321.9c-11.7,0.4-9.6-1.2-9.9,9.8
		c0,1.7-0.4,3.5,0.1,4.9c0.5,1.3,2,3.1,3.1,3.1c4.8,0.1,9.6-0.2,14.4-0.8c4.4-0.5,7.2-2.8,7.5-7.7s-1.9-7.6-6.5-8.4
		C-179,322.4-182,322.2-184.9,321.9z"/>
	<path id="XMLID_102_" class="st5" d="M-163.1,281.4c-1.5-1-3-2-4.4-3c-0.2-0.2-0.2-0.6-0.3-0.9c-1.9-4-3-10.7-5.7-11.5
		c-6.5-1.8-13.8-0.9-20.8-0.6c-1.1,0-2.4,2.1-3.1,3.4c-1.4,3-2.1,6.4-3.7,9.3c-0.8,1.5-2.9,2.2-4.4,3.3c-0.4-0.5-0.9-0.9-1.3-1.4
		c1.4-3.8,2.8-7.7,4.3-11.5c4.8-12.1,9.5-24.2,14.5-36.1c0.6-1.4,2.7-2.9,4.2-3c1.2-0.1,3.2,1.6,3.7,3c6,15.3,11.9,30.7,17.8,46.1
		c0.2,0.4,0.1,1,0.1,1.4C-162.4,280.5-162.8,280.9-163.1,281.4z M-174.7,259.8c-3.2-8.6-6.1-16.7-9.6-26.1
		c-3.5,9.5-6.4,17.6-9.7,26.5c5.6,0,10.1,0,14.6,0C-178.1,260.2-176.8,260-174.7,259.8z"/>
	<path id="XMLID_99_" class="st5" d="M-202.7,524.4c0-7,0.1-14-0.1-21c-0.1-3.1,0.8-4.5,4.2-4.4c6.1,0.2,12.3-0.1,18.5,0.1
		c8.9,0.2,15.1,4.9,18,13.3c2.9,8.3,2.8,16.6-0.2,24.9c-2.8,7.9-8.6,12.2-16.8,12.8c-6.6,0.5-13.3,0.1-20,0.2
		c-2.9,0.1-3.7-1.3-3.7-3.9C-202.6,539-202.7,531.7-202.7,524.4z M-197.6,524.7c0,2.7,0,5.3,0,8c0,14.8,0,14.9,15,13.3
		c6.7-0.7,12.8-2.8,15.4-9.9c2.7-7.4,2.8-15,0.1-22.4c-1.9-5.3-5.7-8.6-11.3-9.3c-4.9-0.6-9.9-0.6-14.9-0.9
		c-3.3-0.2-4.4,1.3-4.3,4.4C-197.5,513.4-197.6,519-197.6,524.7z"/>
	<path id="XMLID_98_" class="st6" d="M-184,364.4c-10.8,0-10.8,0-10.8-10.8c0-9.4,0-9.5,9.6-9.3c3.6,0.1,7.3,0.4,10.9,1
		c5,0.9,7.5,4.2,7.4,9.1c-0.1,5.3-2.5,8.6-7.7,9.5C-177.7,364.3-180.9,364.2-184,364.4z"/>
	<path id="XMLID_97_" class="st6" d="M-184.9,321.9c3,0.3,5.9,0.5,8.9,1c4.6,0.8,6.8,3.5,6.5,8.4s-3.2,7.2-7.5,7.7
		c-4.8,0.6-9.6,0.8-14.4,0.8c-1.1,0-2.6-1.8-3.1-3.1c-0.5-1.5-0.2-3.3-0.1-4.9C-194.6,320.7-196.6,322.3-184.9,321.9z"/>
	<path id="XMLID_96_" class="st7" d="M-174.7,259.8c-2.2,0.2-3.5,0.4-4.8,0.4c-4.5,0-8.9,0-14.6,0c3.2-8.9,6.2-17,9.7-26.5
		C-180.8,243.1-177.8,251.2-174.7,259.8z"/>
	<path id="XMLID_95_" class="st4" d="M-197.6,524.7c0-5.6,0.1-11.3,0-16.9c-0.1-3.2,1-4.7,4.3-4.4c5,0.4,10,0.4,14.9,0.9
		c5.6,0.7,9.4,4,11.3,9.3c2.7,7.5,2.6,15-0.1,22.4c-2.6,7.1-8.6,9.2-15.4,9.9c-15,1.6-15,1.6-15-13.3
		C-197.6,530-197.6,527.3-197.6,524.7z"/>
</g>
</svg>
