<?xml version="1.0" encoding="utf-8"?>
<!-- Generator: Adobe Illustrator 19.0.0, SVG Export Plug-In . SVG Version: 6.00 Build 0)  -->
<svg version="1.1" id="Livello_1" xmlns="http://www.w3.org/2000/svg" xmlns:xlink="http://www.w3.org/1999/xlink" x="0px" y="0px"
	 viewBox="0 0 426.5 469.3" style="enable-background:new 0 0 426.5 469.3;" xml:space="preserve">
<style type="text/css">
	.st0{fill:#297FB8;}
	.st1{fill:#3497DA;}
	.st2{fill:#236591;}
	.st3{fill:#BF392B;}
	.st4{fill:#27AD5F;}
	.st5{fill:#2ECB70;}
	.st6{fill:#F19B12;}
	.st7{fill:#EFC30F;}
	.st8{fill:#2772A4;}
	.st9{fill:#D7A10F;}
	.st10{fill:#BD8C11;}
	.st11{fill:#28AD5F;}
	.st12{fill:#2ECA70;}
	.st13{fill:#278E4F;}
	.st14{fill:#218F4F;}
	.st15{fill:#219351;}
</style>
<g id="XMLID_1_">
	<path id="XMLID_87_" class="st0" d="M426.3,273.3c0.1,18.5,0.1,36.9,0.2,55.4c0,38.4,0,76.9,0,115.3c0,2,0,3.9,0,6.2
		c-17.3,3.1-34.1,6.2-50.9,9.2c-14.9,2.7-29.8,5.3-44.6,8.1c-1,0.2-1.8,1.3-2.7,1.9c-3,0-6,0-9,0c0-0.7,0-1.4,0-2
		c0.3-2.1,0.9-4.2,0.9-6.3c0.1-43.1,0.1-86.1,0-129.2c0-2.1-0.6-4.2-0.9-6.3c0.3-6,0.5-12,0.8-18c0.4-0.3,0.9-0.7,1.3-1
		c1-0.2,2-0.4,2.9-0.7C358.3,294.9,392.3,284.1,426.3,273.3z"/>
	<path id="XMLID_86_" class="st1" d="M320.1,307.4c-0.3,6-0.5,12-0.8,18c0,47.3,0,94.6-0.1,141.8c0,0.7,0,1.4,0,2c-2.3,0-4.7,0-7,0
		c0.1-0.1,0.2-0.2,0.3-0.4c0.1-0.1,0.1-0.2,0.1-0.4c-1.2-0.4-2.5-1-3.7-1.2c-31.9-5.8-63.8-11.5-95.7-17.3c0-42.5,0-85-0.1-127.5
		c0,0,0-0.4,0-0.4c2-0.3,3.9-0.5,5.9-0.8c33.3-4.7,66.7-9.5,100-14.2C319.5,307.2,319.8,307.3,320.1,307.4z"/>
	<path id="XMLID_85_" class="st0" d="M213.2,322.6c0,42.5,0,85,0.1,127.5c-32,5.8-64.1,11.5-96.1,17.4c-1.1,0.2-2,1.2-3,1.9
		c-2.3,0-4.7,0-7,0c0-34.9,0-69.8,0-104.7c6.5-2.6,12.9-5.3,19.4-7.8C155.5,345.4,184.4,334,213.2,322.6z"/>
	<path id="XMLID_84_" class="st1" d="M98.3,469.3c-0.8-0.7-1.6-1.7-2.5-1.9C66,462,36.3,456.7,6.5,451.3c-2-0.4-3.9-0.8-6.4-1.2
		c0-23.5,0-47.1,0-70.6c16.3-2.2,32.6-4.4,48.9-6.6c18.8-2.5,37.5-5.1,56.3-7.6c0.3,2.3,0.9,4.5,0.9,6.8c0.1,32.4,0,64.9,0,97.3
		C103.6,469.3,100.9,469.3,98.3,469.3z"/>
	<path id="XMLID_82_" class="st2" d="M106.3,469.3c0-32.4,0-64.9,0-97.3c0-2.3-0.6-4.5-0.9-6.8c0.3-0.3,0.6-0.6,0.8-0.8
		c0.4-0.1,0.7-0.1,1.1-0.2l0,0.4c0,34.9,0,69.8,0,104.7C106.9,469.3,106.6,469.3,106.3,469.3z"/>
	<path id="XMLID_79_" class="st3" d="M29,47.4C41.3,22.8,61,7.7,87.7,2c37.8-8.1,78.9,8.8,95.7,45.5c10.9,25.5,11.6,50.9-1.2,76.1
		c-3.4,6.7-6.2,13.6-9.3,20.4c-0.9,1.6-1.9,3.1-2.7,4.8c-14.1,29.7-28.5,59.4-42.1,89.3c-4.4,9.7-11,15.5-20.9,18.2
		c-0.3,0-0.7,0-1,0c-10.1-2.2-16.7-7.8-21.2-17.5C66.6,199,47.5,159.5,28.8,119.8c-2.3-4.8-4.3-9.8-5.5-14.9
		C18.7,85.1,21.1,66,29,47.4z M137.5,54.7c-15.2-15.9-46.8-15.9-62.2-0.1c-7.8,7.7-10.8,17.3-11.6,27.8c-1.8,24,18.7,46,42.4,45.4
		c0.4,0,0.8,0,1.2,0c16.4,0,31.9-10.1,38.2-26.3C152.2,84.5,149.8,68.7,137.5,54.7z"/>
	<path id="XMLID_78_" class="st4" d="M319.2,59.8c35.4-5.6,70.9-11.2,107.2-17c0,47.4,0,94.3,0,141.1c-2.3,1-4.6,1.9-6.8,3
		c-33.1,15.8-66.2,31.7-99.3,47.5c-0.1-0.5-0.1-0.9-0.2-1.4c0-0.8,0.1-1.7,0.1-2.5c0-54.8,0-109.5,0-164.3c0-1.6-0.6-3.2-0.9-4.8
		C319.2,60.8,319.2,60.3,319.2,59.8z"/>
	<path id="XMLID_77_" class="st5" d="M29,47.4c-8,18.6-10.3,37.7-5.7,57.5c1.2,5.1,3.2,10.1,5.5,14.9C47.5,159.5,66.6,199,85,238.8
		c4.5,9.7,11.1,15.3,21.2,17.6c0,11.9,0.1,23.8,0.1,35.7l-0.2,0.4c-35.3,5.6-70.7,11.2-106,16.9c0-4.5-0.1-9-0.1-13.5
		c0-82,0-164,0-246c0-2.1,0-4.3,0-7.2C10.1,44.4,19.6,45.9,29,47.4z"/>
	<path id="XMLID_76_" class="st5" d="M319.2,59.8c0,0.5,0,1.1,0.1,1.6c0,57,0,114.1,0,171.1c-18.7,2.7-37.4,5.4-56.3,8.1
		c-0.4-1.6-0.7-2.6-0.9-3.5c-8.3-34.1-16.6-68.2-24.8-102.3c-7.4-30.6-14.7-61.1-22-91.7c15.6,2.4,31.2,4.7,46.8,7.3
		C281.1,53.4,300.2,56.6,319.2,59.8z"/>
	<path id="XMLID_75_" class="st6" d="M173,144c3.1-6.8,5.9-13.8,9.3-20.4c12.8-25.2,12.1-50.6,1.2-76.1c9.9-1.6,19.8-3.1,29.7-4.7
		c0,1.8,0.1,3.7,0.1,5.5c0,91.3,0,182.5,0,273.8c0,0,0,0.4,0,0.4c-28.9,11.4-57.7,22.8-86.6,34.3c-6.5,2.6-12.9,5.2-19.4,7.8
		c0,0,0-0.4,0-0.4c0-24-0.1-48-0.1-71.9c0.1-0.2,0.2-0.5,0.2-0.7c1.5-0.6,3.1-1.1,4.6-1.8c23.7-10.9,47.4-21.8,71.1-32.7
		c6-2.8,12-5.6,18.2-8.5C191.8,213.5,182.4,178.8,173,144z"/>
	<path id="XMLID_74_" class="st7" d="M213.3,322.1c0-91.3,0-182.5,0-273.8c0-1.8-0.1-3.7-0.1-5.5c0.7,0.1,1.4,0.2,2.1,0.3
		c7.3,30.6,14.7,61.1,22,91.7c8.2,34.1,16.5,68.2,24.8,102.3c0.2,0.9,0.5,1.9,0.9,3.5c18.9-2.7,37.6-5.4,56.3-8.1
		c0.2,0.2,0.5,0.4,0.8,0.4c0.1,0.5,0.1,0.9,0.2,1.4c-0.3,15.7-0.6,31.4-0.9,47.1c-0.1,8.6-0.1,17.1-0.2,25.7
		c-33.3,4.7-66.7,9.5-100,14.2C217.2,321.6,215.2,321.9,213.3,322.1z"/>
	<path id="XMLID_73_" class="st6" d="M319.4,281.4c0.3-15.7,0.6-31.4,0.9-47.1c33.1-15.8,66.2-31.7,99.3-47.5c2.2-1.1,4.6-2,6.8-3
		c0,20.5,0.1,41,0.1,61.4c0,9.3-0.1,18.6-0.2,28c-34,10.8-68,21.7-102,32.5c-0.9,0.3-1.9,0.5-2.9,0.7c-0.4-2.4-0.9-4.8-1.1-7.2
		C319.9,293.3,319.7,287.4,319.4,281.4z"/>
	<path id="XMLID_72_" class="st7" d="M0.1,309.4c35.3-5.6,70.7-11.2,106-16.9c0,24,0,47.9,0,71.9c-0.3,0.3-0.6,0.6-0.8,0.8
		c-18.8,2.5-37.5,5.1-56.3,7.6c-16.3,2.2-32.6,4.4-48.9,6.6C0.1,356.1,0.1,332.7,0.1,309.4z"/>
	<path id="XMLID_71_" class="st8" d="M319.3,467.3c0-47.3,0-94.6,0.1-141.8c0.3,2.1,0.9,4.2,0.9,6.3c0.1,43.1,0.1,86.1,0,129.2
		C320.2,463.1,319.6,465.2,319.3,467.3z"/>
	<path id="XMLID_70_" class="st9" d="M319.4,281.4c0.3,5.9,0.5,11.9,0.9,17.8c0.2,2.4,0.7,4.8,1.1,7.2c-0.4,0.3-0.9,0.7-1.3,1
		c-0.3-0.1-0.6-0.2-0.9-0.3C319.3,298.6,319.3,290,319.4,281.4z"/>
	<path id="XMLID_69_" class="st10" d="M106.2,364.4c0-24,0-47.9,0-71.9c0,0,0.2-0.4,0.2-0.4c0.3,0.1,0.5,0.2,0.8,0.2
		c0,24,0.1,48,0.1,71.9C106.9,364.3,106.5,364.3,106.2,364.4z"/>
	<path id="XMLID_68_" class="st11" d="M173,144c9.4,34.8,18.8,69.5,28.3,104.6c-6.2,2.9-12.2,5.7-18.2,8.5
		c-23.7,10.9-47.4,21.8-71.1,32.7c-1.5,0.7-3.1,1.2-4.6,1.8c0-11.8-0.1-23.5-0.1-35.3c9.9-2.7,16.5-8.6,20.9-18.2
		c13.6-30,28-59.6,42.1-89.3C171,147.1,172.1,145.6,173,144z"/>
	<path id="XMLID_67_" class="st12" d="M106.2,127.8c-23.8,0.6-44.3-21.4-42.4-45.4c0.8-10.6,3.9-20.2,11.6-27.8
		c10.3,1.7,20.6,3.5,30.9,5.2c0,0.5,0,1,0,1.5C106.2,83.5,106.2,105.7,106.2,127.8z"/>
	<path id="XMLID_66_" class="st4" d="M106.3,61.4c0-0.5,0-1,0-1.5c10.4-1.7,20.8-3.4,31.3-5.1c12.3,13.9,14.8,29.8,8.1,46.8
		c-6.4,16.1-21.8,26.3-38.2,26.3c0-19.9,0-39.8-0.1-59.6C107.2,65.9,106.6,63.6,106.3,61.4z"/>
	<path id="XMLID_64_" class="st13" d="M106.3,61.4c0.3,2.3,0.9,4.5,0.9,6.8c0.1,19.9,0.1,39.7,0.1,59.6c-0.4,0-0.8,0-1.2,0
		C106.2,105.7,106.2,83.5,106.3,61.4z"/>
	<path id="XMLID_63_" class="st14" d="M107.3,256.3c0,11.8,0.1,23.5,0.1,35.3c0,0.3-0.1,0.5-0.2,0.7c-0.3-0.1-0.5-0.1-0.8-0.2
		c0-11.9-0.1-23.8-0.1-35.7C106.6,256.3,106.9,256.3,107.3,256.3z"/>
	<path id="XMLID_62_" class="st15" d="M320.1,232.9c-0.3-0.1-0.6-0.2-0.8-0.4c0-57,0-114.1,0-171.1c0.3,1.6,0.9,3.2,0.9,4.8
		c0,54.8,0,109.5,0,164.3C320.2,231.3,320.1,232.1,320.1,232.9z"/>
</g>
</svg>
