<?xml version="1.0" encoding="utf-8"?>
<!-- Generator: Adobe Illustrator 19.0.0, SVG Export Plug-In . SVG Version: 6.00 Build 0)  -->
<svg version="1.1" id="Livello_1" xmlns="http://www.w3.org/2000/svg" xmlns:xlink="http://www.w3.org/1999/xlink" x="0px" y="0px"
	 viewBox="0 0 334.7 445.1" style="enable-background:new 0 0 334.7 445.1;" xml:space="preserve">
<style type="text/css">
	.st0{fill:#3399FF;}
</style>
<g>
	<path class="st0" d="M225,441.7c-32.2-7.7-58-25.8-80.4-49.4c-25.5-26.9-49.1-55.2-70.4-85.5C55.3,280,39.5,251.5,27.7,221
		c-8.5-21.8-17.4-43.7-23.1-66.4C-5.5,115,1.4,77.3,22.7,42.4c3.4-5.5,6.4-5.6,10-0.1c15.4,23.1,30.7,46.3,46,69.5
		c6.5,9.9,13,19.7,19.6,29.5c2.5,3.7,2.7,6.9-0.4,10.3c-11.6,12.7-13.8,24.5-5.7,39.5c21.3,39,43,77.8,69.4,113.7
		c8.2,11.2,17.7,21.3,31.5,25.9c3.2,1.1,6.8,1.4,10.3,1.6c5.2,0.3,9.1,2.2,12,6.8c19.1,30.6,38.4,61.2,57.6,91.7
		c4.6,7.3,3.6,9.7-4.9,11.3c-6,1.1-12.1,1.9-18.6,3"/>
	<path class="st0" d="M84.6,0c6.7,9.3,13.6,18.4,20,27.9c17.1,25.2,34.1,50.4,51.1,75.7c4.6,6.8,4,9.5-2.6,14
		c-8.9,6.1-17.9,12.2-26.8,18.2c-5.3,3.6-8.6,3.2-12.3-2.1c-12.1-17.5-24-35.2-35.9-52.8C67.9,65.7,57.7,50.6,47.4,35.4
		c-4.8-7.1-4.4-10.2,2.7-15.1C59.9,13.6,69.8,6.8,79.6,0C81.3,0,83,0,84.6,0z"/>
	<path class="st0" d="M294.8,428.1c-2.3-2.3-5-4.4-6.8-7.1c-7.6-11.9-14.9-24-22.4-36c-12-19.4-23.9-38.8-35.9-58.2
		c-3.4-5.6-3-8.6,2.5-12.1c9.6-6.2,19.4-12.3,29.2-18.1c5.2-3.1,8.6-2.2,11.8,2.9c12.2,19.6,24.4,39.3,36.6,58.9
		c7.5,12.2,15.1,24.3,22.5,36.5c3.6,5.9,2.8,9.1-3.2,12.8c-9.3,5.8-18.6,11.6-28,17.3C299.7,426,297.8,426.7,294.8,428.1z"/>
</g>
</svg>
